# xmcd
#
# Track frame offsets: 
#        150
#        12672
#        22997
#        34670
#        44365
#        56167
#        66152
#        77147
#        88022
#        97132
#        109302
#        122522
#        135257
#        145507
#        156157
#        168500
#        178237
#        190970
#
# Disc length: 2706 seconds
#
# Revision: 0
# Processed by: cddbd v1.5.2PL0 Copyright (c) Steve Scherf et al.
# Submitted via: ExactAudioCopy v0.99pb3
#
DISCID=f70a9012
DTITLE=Carl Story - Lonesome Hearted Blues
DYEAR=2005
DGENRE=Bluegrass
TTITLE0=Love and Wealth
TTITLE1=My Lord Keeps A Record
TTITLE2=Lonesome Hearted Blues
TTITLE3=Someone To Lean On
TTITLE4=Action Speaks Louder Than Words
TTITLE5=Step It Up And Go
TTITLE6=Have You Come To Say Goodbye?
TTITLE7=It's A Lonesome Road
TTITLE8=A Million Years In Glory
TTITLE9=On The Other Shore
TTITLE10=I Love The Hymns They Sang At Mother's Grave
TTITLE11=Love Me Like You Used To Do
TTITLE12=What A Line
TTITLE13=You've Been Tom Cattin' Around
TTITLE14=One Little Word
TTITLE15=Don't You Hear Jerusalem Mourn
TTITLE16=Reunion In Heaven
TTITLE17=It Won't Be Long
EXTD=
EXTT0=
EXTT1=
EXTT2=
EXTT3=
EXTT4=
EXTT5=
EXTT6=
EXTT7=
EXTT8=
EXTT9=
EXTT10=
EXTT11=
EXTT12=
EXTT13=
EXTT14=
EXTT15=
EXTT16=
EXTT17=
PLAYORDER=
